<?xml version="1.0" encoding="UTF-8" standalone="no"?>
<!-- Created with Inkscape (http://www.inkscape.org/) -->

<svg
   xmlns:dc="http://purl.org/dc/elements/1.1/"
   xmlns:cc="http://creativecommons.org/ns#"
   xmlns:rdf="http://www.w3.org/1999/02/22-rdf-syntax-ns#"
   xmlns:svg="http://www.w3.org/2000/svg"
   xmlns="http://www.w3.org/2000/svg"
   xmlns:sodipodi="http://sodipodi.sourceforge.net/DTD/sodipodi-0.dtd"
   xmlns:inkscape="http://www.inkscape.org/namespaces/inkscape"
   id="svg3336"
   version="1.1"
   inkscape:version="0.91 r13725"
   width="782.70001"
   height="228.3"
   viewBox="0 0 782.70001 228.3"
   sodipodi:docname="ieee_logo.svg">
  <metadata
     id="metadata3342">
    <rdf:RDF>
      <cc:Work
         rdf:about="">
        <dc:format>image/svg+xml</dc:format>
        <dc:type
           rdf:resource="http://purl.org/dc/dcmitype/StillImage" />
        <dc:title></dc:title>
      </cc:Work>
    </rdf:RDF>
  </metadata>
  <defs
     id="defs3340" />
  <sodipodi:namedview
     pagecolor="#ffffff"
     bordercolor="#666666"
     borderopacity="1"
     objecttolerance="10"
     gridtolerance="10"
     guidetolerance="10"
     inkscape:pageopacity="0"
     inkscape:pageshadow="2"
     inkscape:window-width="1366"
     inkscape:window-height="705"
     id="namedview3338"
     showgrid="false"
     showguides="false"
     inkscape:zoom="1.5472084"
     inkscape:cx="391.35001"
     inkscape:cy="114.15"
     inkscape:window-x="-8"
     inkscape:window-y="-8"
     inkscape:window-maximized="1"
     inkscape:current-layer="g3434" />
  <g
     id="g3434"
     transform="translate(31.669942,8.4022297)">
    <path
       style="fill:#d3e6f0"
       d="m 94.641957,212.6553 c -1.776146,-0.60371 -2.707094,-1.3856 -3.743466,-3.14412 -1.137181,-1.92957 -5.597799,-8.2295 -8.416216,-11.88661 -24.800108,-32.17998 -54.550393,-60.38362 -88.7919573,-84.17588 -5.5725527,-3.87201 -6.6778477,-5.23312 -6.6778477,-8.22337 0,-3.00476 1.154512,-4.45872 6.4713047,-8.149792 C 12.901986,83.594857 27.15383,71.921506 43.489109,56.117338 58.492265,41.601979 70.222618,28.446606 84.86561,9.7143624 c 9.118025,-11.664357 9.218779,-11.7564989 12.85552,-11.7564989 1.94292,0 2.35821,0.1015566 3.8236,0.9350329 1.4968,0.85133748 2.00991,1.44665946 5.73235,6.6508401 4.28811,5.9950155 14.83364,19.1594635 21.12869,26.3758645 4.61159,5.286546 13.65494,14.641487 23.81969,24.640403 10.23554,10.068565 18.47207,17.328127 29.19816,25.734851 8.43478,6.610873 21.03173,15.63765 22.88693,16.400402 1.26902,0.521756 3.18713,2.795283 3.86714,4.583733 1.60425,4.21917 -0.076,7.13411 -5.95211,10.32594 -2.55431,1.38745 -12.39034,8.55813 -20.35493,14.83916 -12.10837,9.5489 -22.57021,18.79216 -34.09203,30.12102 -15.85616,15.59064 -29.26489,30.98737 -41.53357,47.6914 -3.65464,4.97587 -4.58068,6.01487 -5.8317,6.54309 -1.279451,0.54022 -3.954248,0.47334 -5.771393,-0.1443 z m 6.390833,-27.34902 c 3.33366,-0.85442 7.73404,-3.6034 16.23566,-10.14262 16.98206,-13.06218 38.23019,-33.91287 53.09809,-52.10493 3.35684,-4.10736 6.21433,-8.39304 8.01941,-12.02758 1.41183,-2.84269 1.47043,-3.05467 1.4473,-5.23577 -0.0397,-3.74523 -1.12037,-5.71402 -8.27805,-15.081118 -7.1415,-9.34592 -14.79249,-18.157261 -23.9397,-27.57041 -4.8736,-5.015294 -13.02301,-12.846387 -14.63905,-14.067237 -0.47449,-0.358467 -2.63397,-2.223996 -4.79885,-4.145625 -8.87293,-7.875976 -18.06569,-14.928326 -21.94931,-16.838736 -3.7174,-1.828632 -5.8797,-2.355138 -9.048952,-2.203354 -3.11933,0.149395 -4.589311,0.793229 -8.958118,3.923559 C 75.251874,39.105231 64.530007,48.325839 49.251627,63.325592 40.01042,72.398269 35.080405,77.633613 29.122091,84.7018 c -8.138294,9.654232 -11.214775,14.127125 -12.620176,18.34847 -0.620557,1.86394 -0.410858,4.53676 0.536621,6.83981 1.440064,3.5004 11.177465,16.03914 19.932387,25.66672 6.980329,7.6761 18.896216,19.0097 33.882693,32.22699 7.808366,6.88656 15.030693,12.23347 21.371875,15.82224 3.83862,2.17246 5.621807,2.5167 8.807299,1.70025 z m -6.173107,-5.30155 C 86.873475,175.45575 81.180754,171.03654 66.681422,158.13016 47.843748,141.36207 34.841875,127.55121 24.64653,113.47981 c -3.207722,-4.42722 -3.575724,-5.11113 -3.851663,-7.158 -0.15247,-1.13098 -0.04984,-1.73525 0.535413,-3.15254 2.308135,-5.589524 13.782688,-19.444724 27.805198,-33.573993 7.886633,-7.946678 21.093778,-20.079594 28.026314,-25.746738 4.261524,-3.483668 15.855775,-12.129321 17.147474,-12.786602 3.126554,-1.590952 7.932054,-0.652861 12.564464,2.452739 2.38418,1.598369 12.15807,9.37951 15.89234,12.652128 1.97734,1.732895 5.2777,4.598481 7.33414,6.367976 4.42158,3.804614 16.86167,16.16588 22.11867,21.978522 6.90844,7.638625 12.97015,15.019504 18.78828,22.877051 3.13332,4.231647 4.43823,6.671997 4.46046,8.341697 0.0291,2.18841 -3.63014,8.44496 -8.30815,14.20505 -11.84519,14.58511 -29.46639,32.44616 -44.62727,45.23469 -7.49829,6.32497 -17.02042,13.3939 -20.14913,14.95806 -1.33187,0.66586 -2.31322,0.94208 -3.59517,1.01196 -1.641102,0.0894 -1.913222,0.0107 -3.928217,-1.13708 z m 9.692847,-22.09848 c 0.1939,-0.19081 -1.17918,-32.94836 -1.38976,-33.15559 -0.0547,-0.0539 -2.5877,-0.14005 -5.628873,-0.1916 l -5.529405,-0.0938 -0.143499,1.13206 c -0.07893,0.62263 -0.346172,6.35367 -0.593876,12.73565 -0.247707,6.38198 -0.571506,13.3151 -0.719555,15.40693 -0.148052,2.09184 -0.196957,3.87483 -0.108683,3.9622 0.498394,0.49334 13.626781,0.68316 14.113651,0.20409 z m 2.73026,-36.29365 c 5.09699,-0.49112 9.84432,-1.27475 14.49011,-2.39188 4.96107,-1.19292 6.76245,-1.80658 10.39968,-3.54279 6.90392,-3.29553 9.83454,-7.80758 7.88619,-12.14173 -0.84859,-1.88771 -3.7324,-4.561503 -6.57775,-6.098753 -1.29651,-0.700461 -2.36109,-1.409497 -2.36573,-1.575646 -0.009,-0.309136 2.62165,-1.237829 3.61201,-1.27531 0.30247,-0.01141 -1.39144,-0.44205 -3.76425,-0.956881 -2.37281,-0.514841 -6.89082,-1.589109 -10.04,-2.387269 -3.1492,-0.79816 -5.7495,-1.418256 -5.77846,-1.377986 -0.029,0.04026 0.65193,1.994539 1.5131,4.342821 l 1.56575,4.269613 2.77464,-0.660631 c 1.52605,-0.363344 3.01441,-0.660877 3.30748,-0.661179 0.75875,-8.49e-4 5.11802,2.05512 6.64373,3.133291 2.45695,1.73623 3.51861,4.12463 2.96623,6.67311 -0.60285,2.7814 -4.95021,5.80378 -10.87307,7.55921 -12.22596,3.62354 -25.389988,4.41698 -38.139752,2.29877 -11.123034,-1.84794 -17.144612,-4.4938 -18.860672,-8.28732 -0.796048,-1.75975 -0.726121,-2.64934 0.336321,-4.27853 2.23149,-3.42187 6.03068,-5.781089 12.15741,-7.549495 1.943146,-0.560869 3.849954,-1.111323 4.237358,-1.223236 0.63722,-0.184082 0.445292,-0.360787 -2.013295,-1.853547 -1.494716,-0.907536 -3.803312,-2.358978 -5.130214,-3.225427 -2.77296,-1.810704 -3.058054,-1.839812 -6.791082,-0.693394 -2.883475,0.885521 -9.189169,3.83853 -11.95204,5.597248 -5.657142,3.601067 -8.357946,8.615011 -6.666879,12.376811 1.893875,4.21296 8.13284,7.87068 18.464255,10.82504 11.758168,3.36236 24.931101,4.42205 38.59893,3.10509 z m -4.83349,-6.63537 c 0.13805,-0.1257 -0.0478,-7.36906 -0.42004,-16.370113 -0.3672,-8.879563 -0.57157,-16.239193 -0.45415,-16.354739 0.11742,-0.115547 2.15838,-0.264452 4.53546,-0.330898 3.84635,-0.107523 4.3012,-0.171416 4.13326,-0.580596 -0.77315,-1.883738 -6.57107,-17.430541 -9.32925,-25.015858 l -3.371954,-9.273298 -0.65636,2.197936 c -0.360996,1.208865 -3.033708,8.923452 -5.939355,17.143525 -2.905648,8.220076 -5.282995,15.045848 -5.282995,15.168382 0,0.122536 1.763879,0.301246 3.919733,0.397134 2.15585,0.09589 3.944113,0.211047 3.973913,0.255907 0.0298,0.04486 -0.232743,6.258356 -0.58343,13.807762 -0.350684,7.549416 -0.682901,14.936086 -0.738261,16.414836 l -0.10065,2.68864 2.157101,0.16997 c 2.578194,0.20314 7.808348,-9.4e-4 8.156978,-0.31859 z m 30.27972,89.26083 c -2.04127,-0.61691 -4.0312,-2.66416 -4.6607,-4.79494 -1.13173,-3.83077 0.48839,-7.74977 3.87043,-9.36241 1.33166,-0.63497 4.58029,-0.83081 6.23216,-0.37571 1.54166,0.42473 3.67554,2.19892 4.45655,3.70534 0.31198,0.60176 0.64613,1.83678 0.74255,2.74448 0.62197,5.85561 -4.68154,9.88434 -10.64099,8.08324 z m 4.99295,-2.15151 1.29426,-0.61986 -1.01978,-0.0951 c -0.9143,-0.0853 -1.11713,-0.26935 -1.96086,-1.77956 -0.51759,-0.92645 -1.05529,-1.68445 -1.19487,-1.68445 -0.13959,0 -0.29261,0.7323 -0.34005,1.62733 l -0.0863,1.62733 -1.00665,0 -1.00665,0 -0.0796,-4.17446 -0.0796,-4.17447 2.46669,0 c 3.53869,0 4.45142,0.55184 4.45142,2.69128 0,0.71945 -0.21095,1.10934 -0.87819,1.62319 l -0.87818,0.67629 0.93292,1.59828 c 1.06084,1.81743 1.35435,1.78502 2.1388,-0.23617 0.32419,-0.83529 0.43996,-1.75213 0.35243,-2.79082 -0.55442,-6.57865 -9.96855,-6.61357 -10.52262,-0.0391 -0.22468,2.66605 0.97836,4.84211 3.23448,5.85054 1.5249,0.68159 2.60368,0.65571 4.18229,-0.10032 z m -1.19407,-6.12756 c 0.21331,-0.133 0.34166,-0.48128 0.28523,-0.77395 -0.0747,-0.38729 -0.39548,-0.55603 -1.17875,-0.61996 -1.02816,-0.084 -1.07616,-0.0492 -1.07616,0.77829 0,0.75724 0.0994,0.86559 0.79094,0.8618 0.43501,-0.002 0.96545,-0.11316 1.17874,-0.24618 z m 100.70836,-88.19151 0,-81.649676 23.00908,0 23.00908,0 0,81.649676 0,81.64967 -23.00908,0 -23.00908,0 0,-81.64967 z m 69.89009,0 0,-81.649676 63.27498,0 63.27498,0 0,15.990318 0,15.990318 -40.12209,0 -40.12209,0 0,16.697854 0,16.697854 36.96072,0 36.96076,0 -0.0743,15.919562 -0.0743,15.91956 -36.88644,0.0718 -36.88643,0.0718 0,17.1213 0,17.1213 40.12209,0 40.12209,0 0,15.84881 0,15.84882 -63.27498,0 -63.27498,0 0,-81.64968 z m 151.85995,0 0,-81.649676 63.27498,0 63.27498,0 0,15.990318 0,15.990318 -40.12209,0 -40.12209,0 0,16.697854 0,16.697854 36.95834,0 36.95834,0 0,15.990312 0,15.99032 -36.95834,0 -36.95834,0 0,17.12237 0,17.12238 40.12209,0 40.12209,0 0,15.84881 0,15.84881 -63.27498,0 -63.27498,0 0,-81.64967 z m 152.14756,0 0,-81.649676 63.13118,0 63.13118,0 0,15.990318 0,15.990318 -40.12209,0 -40.1221,0 0,16.697854 0,16.697854 36.95835,0 36.95834,0 0,15.990312 0,15.99032 -36.95834,0 -36.95835,0 0,17.12237 0,17.12238 40.1221,0 40.12209,0 0,15.84881 0,15.84881 -63.13118,0 -63.13118,0 0,-81.64967 z"
       id="path3448"
       inkscape:connector-curvature="0" />
    <path
       style="fill:#bddbe9"
       d="m 95.029634,212.7564 c -1.838124,-0.4963 -2.686325,-1.12898 -3.808852,-2.84107 -2.617985,-3.99295 -3.536352,-5.33724 -5.607814,-8.2086 -1.243799,-1.72408 -4.54866,-5.99053 -7.344134,-9.48098 -2.795477,-3.49045 -5.802048,-7.24887 -6.681268,-8.35204 -2.211691,-2.77503 -9.952841,-11.29502 -16.563325,-18.22977 -18.005344,-18.88856 -38.154235,-36.02473 -61.9629428,-52.69806 -4.9225832,-3.44731 -5.8093312,-4.54545 -5.9956682,-7.42503 -0.220472,-3.40709 0.626365,-4.31677 10.4447343,-11.219798 C 16.032677,81.278517 30.530983,69.065058 47.427976,52.250158 61.945224,37.803443 71.05347,27.468301 85.155266,9.4409383 c 7.279769,-9.30626482 7.956357,-10.08408124 9.42467,-10.8347369 1.355816,-0.6931438 1.852185,-0.7963275 3.473417,-0.7220455 1.556723,0.071326 2.180957,0.2592645 3.526557,1.061745 1.46399,0.87308144 2.07843,1.59465014 5.87403,6.89813 4.47826,6.2573631 14.29692,18.5031751 20.90363,26.0709911 4.36832,5.003797 18.27369,19.457791 25.01826,26.005334 8.26416,8.02275 18.62933,17.041733 28.35101,24.668911 8.08587,6.343798 20.29838,15.084289 22.51525,16.11417 2.10934,0.979918 4.10651,3.968813 4.42608,6.623893 0.36127,3.00164 -1.37332,5.34359 -5.79003,7.81742 -2.80001,1.56832 -13.60432,9.38915 -20.71988,14.99835 -27.84518,21.9504 -53.0024,47.5635 -73.38738,74.71724 -5.35716,7.13599 -7.33275,9.40993 -8.64351,9.94884 -1.150401,0.47299 -3.230287,0.45145 -5.097736,-0.0527 z m 6.165416,-27.43698 c 3.51121,-0.91411 8.1029,-3.86732 17.54443,-11.28391 17.34735,-13.62686 37.55571,-33.57321 51.81099,-51.13924 3.32347,-4.09533 5.71762,-7.66316 7.67594,-11.43884 1.59702,-3.07911 1.62015,-3.15843 1.61181,-5.52955 -0.014,-3.99421 -0.91946,-5.64655 -8.60706,-15.707298 -15.53828,-20.334949 -35.62936,-40.360142 -57.0935,-56.906269 -4.32204,-3.33174 -5.61875,-4.192664 -8.2841,-5.500027 -3.21465,-1.576798 -5.39614,-2.059228 -8.685102,-1.920686 -2.271655,0.09569 -3.006937,0.249293 -4.361081,0.911052 -1.574515,0.769448 -11.248287,7.73465 -15.928513,11.468669 -2.876046,2.294594 -7.659707,6.276998 -8.04034,6.693598 -0.158188,0.173134 -2.487857,2.263357 -5.177044,4.644935 C 56.633554,55.83588 39.106178,73.215703 33.83926,79.183018 22.45251,92.083984 16.805299,100.05219 16.190697,104.0851 c -0.2671,1.75267 0.284214,4.94425 1.140963,6.60508 1.632944,3.1655 10.741513,14.95447 16.984504,21.98257 8.023279,9.03228 15.708347,16.59013 28.626282,28.15237 15.294282,13.68921 22.092531,18.92496 30.42339,23.43095 2.851671,1.54241 4.91346,1.82244 7.829214,1.06335 z m -5.639883,-4.99086 c -2.397026,-1.24669 -7.750213,-4.73192 -11.084749,-7.21682 -11.031797,-8.22088 -34.85674,-30.23256 -45.256089,-41.81176 -5.172051,-5.75885 -10.799653,-12.6888 -14.788606,-18.211 -4.366114,-6.04435 -4.555902,-7.0648 -2.174042,-11.68933 3.500557,-6.796546 19.735406,-25.239323 34.39779,-39.075858 14.649756,-13.824626 22.709338,-20.627391 34.151111,-28.825559 3.942882,-2.825127 4.742316,-3.176826 7.197327,-3.16638 2.197821,0.0093 4.443421,0.692431 7.121951,2.166399 3.14887,1.73279 15.40891,11.483083 21.38518,17.007429 1.50278,1.389143 3.06599,2.733173 3.4738,2.986734 2.11838,1.317144 17.64209,16.90645 24.46462,24.567994 8.51003,9.556578 18.35592,22.220094 20.134,25.895821 1.16848,2.41552 1.09246,3.51453 -0.45311,6.55132 -2.45266,4.8191 -5.18572,8.45286 -14.23022,18.91998 -4.11465,4.76185 -8.67582,9.51685 -16.99024,17.71226 -14.41342,14.20709 -21.66196,20.55397 -33.05509,28.94327 -8.3788,6.16973 -10.804803,7.06002 -14.293633,5.2455 z m 8.984863,-22.41001 c 0.19929,-0.19611 -0.86098,-27.44262 -1.23021,-31.61363 l -0.16285,-1.83959 -5.578448,0 -5.578443,0 -0.131853,0.84904 c -0.07252,0.46698 -0.336988,6.19802 -0.58771,12.73565 -0.250718,6.53764 -0.576806,13.60208 -0.724633,15.69875 -0.147831,2.09668 -0.174271,3.90502 -0.05876,4.01855 0.46198,0.45401 13.601497,0.59542 14.052907,0.15123 z m -3.34936,-35.86201 c 8.82504,-0.43857 15.92309,-1.51144 23.4764,-3.54847 5.87602,-1.58469 12.07361,-4.80225 13.96946,-7.25244 2.89461,-3.74098 2.76198,-6.92273 -0.43167,-10.3549 -1.22712,-1.31876 -4.55577,-3.627818 -6.18988,-4.293865 -1.42588,-0.581179 -1.10159,-1.039116 1.15871,-1.63621 l 2.06683,-0.545992 -3.28919,-0.638716 c -1.80905,-0.351297 -6.29496,-1.39273 -9.96867,-2.314302 -3.6737,-0.921571 -6.76143,-1.675584 -6.86159,-1.675584 -0.10016,0 -0.0851,0.222874 0.0335,0.495275 0.11856,0.272401 0.83213,2.214588 1.58571,4.315966 0.88927,2.479801 1.50576,3.804026 1.75659,3.773206 0.21254,-0.02613 1.61108,-0.319665 3.10785,-0.65232 2.61328,-0.580793 2.77326,-0.585689 4.02659,-0.1233 5.45706,2.013251 8.4181,4.856382 8.4181,8.082882 0,4.9947 -7.8734,9.03828 -21.92501,11.26016 -9.95882,1.57471 -20.084397,1.33783 -30.362434,-0.71031 -4.234358,-0.8438 -9.565293,-2.53671 -11.498409,-3.65147 -2.821967,-1.62734 -4.732549,-4.01322 -4.732549,-5.90985 0,-1.25063 1.108164,-3.0339 3.052851,-4.91268 2.379151,-2.298516 5.811269,-3.955179 11.115703,-5.365487 l 3.958272,-1.05239 -1.906032,-1.14751 C 80.703445,93.567111 78.319793,92.076195 76.454761,90.8851 l -3.390973,-2.165626 -2.015673,0.377929 c -5.45558,1.02289 -15.135703,6.061975 -18.334457,9.544176 -1.753123,1.908471 -2.746247,4.041651 -2.929928,6.293361 -0.12779,1.56653 -0.04875,1.94803 0.674425,3.2555 3.819804,6.90602 21.235928,12.92638 40.057405,13.84696 2.472688,0.12095 4.625222,0.2374 4.78341,0.25876 0.158187,0.0213 2.809452,-0.0864 5.8917,-0.23962 z m 1.40617,-6.95013 c 0.0592,-0.0538 -0.19201,-7.42325 -0.55813,-16.376521 -0.36611,-8.95328 -0.57792,-16.365019 -0.47069,-16.470535 0.10723,-0.105519 2.14501,-0.253442 4.5284,-0.328721 3.57019,-0.112764 4.30605,-0.207088 4.17797,-0.535532 -1.06974,-2.743109 -7.89518,-21.115709 -9.81127,-26.409821 -1.380269,-3.81362 -2.598566,-7.174179 -2.707335,-7.467908 -0.140197,-0.378603 -0.4703,0.321612 -1.134083,2.405623 -0.514978,1.616822 -3.236012,9.434859 -6.046742,17.373415 l -5.110415,14.433738 3.74153,0.199607 c 2.057841,0.109782 3.882872,0.252976 4.055627,0.318208 0.224488,0.08477 0.137733,3.98413 -0.304096,13.668102 -0.340006,7.452225 -0.664134,14.823065 -0.720288,16.379645 l -0.102097,2.83014 2.013295,0.17532 c 1.891573,0.16472 8.213424,0.019 8.448324,-0.19476 z m 30.62821,89.28531 c -4.03792,-1.15157 -6.38408,-5.56332 -5.16072,-9.70425 1.6515,-5.59013 9.41339,-7.1932 13.45702,-2.77929 2.13408,2.32947 2.48403,6.06664 0.83967,8.96689 -1.68744,2.97625 -5.66385,4.50686 -9.13597,3.51665 z m 5.37032,-2.63672 c 2.99943,-1.95319 3.06348,-7.18612 0.11504,-9.39905 -0.96442,-0.72383 -1.32034,-0.81619 -3.14554,-0.81619 -1.82521,0 -2.18112,0.0924 -3.14554,0.81619 -3.53904,2.65619 -2.62569,8.79045 1.50366,10.09892 1.2637,0.40043 3.49623,0.066 4.67238,-0.69987 z m -6.20498,-0.80121 c -0.0828,-0.21236 -0.11428,-2.09901 -0.0699,-4.19254 l 0.0806,-3.80642 2.68591,0 c 2.58648,0 2.71157,0.0294 3.37946,0.79407 0.97746,1.11915 0.9121,2.31562 -0.1814,3.32077 l -0.87495,0.80426 0.87495,1.52554 c 0.48121,0.83905 0.87495,1.61844 0.87495,1.732 0,0.11355 -0.47822,0.16694 -1.06271,0.11863 -0.94691,-0.0783 -1.16588,-0.25732 -2.00977,-1.64327 -0.52091,-0.85548 -1.07138,-1.5962 -1.2233,-1.64603 -0.15191,-0.0498 -0.31527,0.65012 -0.36303,1.55543 -0.086,1.6306 -0.0956,1.64686 -1.02354,1.73486 -0.59424,0.0563 -0.99177,-0.0524 -1.0873,-0.2973 z m 4.41593,-5.66409 c 0.0861,-0.73612 0.0276,-0.77829 -1.07855,-0.77829 -1.11289,0 -1.16955,0.042 -1.16955,0.86614 0,0.82779 0.0478,0.86223 1.07855,0.77829 0.93638,-0.0762 1.09055,-0.19044 1.16955,-0.86614 z m 100.42994,-87.52222 0,-81.649676 23.00908,0 23.00908,0 0,81.649676 0,81.64967 -23.00908,0 -23.00908,0 0,-81.64967 z m 69.89009,0 0,-81.649676 63.27498,0 63.27498,0 0,15.990318 0,15.990318 -40.12209,0 -40.12209,0 0,16.696781 0,16.696784 36.88643,0.07182 36.88644,0.07183 0,15.848806 0,15.84881 -36.88644,0.0718 -36.88643,0.0718 0,17.1213 0,17.1213 40.12209,0 40.12209,0 0,15.84881 0,15.84882 -63.27498,0 -63.27498,0 0,-81.64968 z m 151.93136,0.0707 0.0724,-81.578919 63.20308,-0.07138 63.20308,-0.07139 0,15.990951 0,15.990951 -40.12209,0 -40.12209,0 0,16.697854 0,16.697854 36.96073,0 36.96075,0 -0.0743,15.91956 -0.0743,15.91956 -36.88644,0.0718 -36.88643,0.0718 0,17.1213 0,17.1213 40.12209,0 40.12209,0 0,15.84881 0,15.84882 -63.27547,0 -63.27547,0 0.0724,-81.57893 z m 152.07615,-0.0707 0,-81.649676 63.13118,0 63.13118,0 0,15.990318 0,15.990318 -40.12209,0 -40.1221,0 0,16.697854 0,16.697854 36.95835,0 36.95834,0 0,15.990312 0,15.99032 -36.95834,0 -36.95835,0 0,17.12237 0,17.12238 40.1221,0 40.12209,0 0,15.84881 0,15.84881 -63.13118,0 -63.13118,0 0,-81.64967 z"
       id="path3446"
       inkscape:connector-curvature="0" />
    <path
       style="fill:#9fc9e0"
       d="m 95.158988,212.73588 c -2.13696,-0.56502 -2.732481,-1.00143 -3.938324,-2.88613 C 89.59136,207.3032 86.270277,202.49024 84.542537,200.1717 83.052023,198.17152 81.245798,195.88728 73.53259,186.24799 69.759186,181.53233 63.056591,174.05779 55.270597,165.88275 37.480963,147.20422 15.711399,128.6508 -6.5450307,113.1995 c -5.3457373,-3.71122 -6.4503433,-5.09595 -6.4361823,-8.06833 0.01294,-2.71732 1.609678,-4.63683 6.8708258,-8.259752 C 13.967006,83.045792 29.606299,69.998816 47.709731,51.972351 62.188927,37.554708 71.098755,27.446424 84.897233,9.7827745 c 7.792366,-9.97512953 8.052058,-10.27088371 9.752895,-11.1072119 1.909624,-0.9389921 3.882093,-1.1287762 5.309031,-0.510817 2.561421,1.1092652 3.253541,1.82608973 7.570011,7.840159 5.34601,7.4485164 15.6866,20.2407374 22.66396,28.0373044 4.64813,5.193871 22.76907,23.616386 27.87495,28.338862 9.24645,8.552126 17.5133,15.559428 26.39109,22.370076 8.03931,6.167406 17.57479,12.907768 19.88106,14.053373 1.39239,0.69165 2.43517,1.83774 3.49226,3.83829 0.59682,1.1295 0.76412,1.84761 0.76531,3.28507 0.003,3.09794 -1.25094,4.61819 -6.16278,7.47424 -5.97179,3.47237 -21.72894,15.49064 -33.21684,25.3351 -13.162,11.27908 -27.25793,25.00241 -38.82913,37.80277 -7.42286,8.21137 -17.2672,20.24788 -23.72569,29.00899 -3.67266,4.98206 -5.20979,6.6865 -6.53762,7.24919 -1.168556,0.4952 -2.942421,0.47295 -4.966752,-0.0623 z m 7.698122,-27.91308 c 0.99322,-0.39804 2.52706,-1.15094 3.40853,-1.67311 1.75458,-1.03939 9.85298,-6.95277 13.48999,-9.85025 16.67474,-13.28426 36.75298,-33.17118 50.73257,-50.24918 2.98096,-3.64164 6.42641,-8.79496 8.00763,-11.97692 1.31914,-2.65454 1.36135,-2.81913 1.35591,-5.28697 -0.005,-2.33108 -0.0928,-2.72715 -1.03417,-4.66974 -1.12167,-2.31477 -4.52862,-7.116696 -9.72311,-13.704236 -15.62549,-19.815932 -34.8679,-38.707114 -55.74101,-54.723588 -5.90886,-4.534025 -9.31312,-6.245167 -13.686904,-6.87968 -2.672483,-0.387702 -5.666925,0.182587 -7.875898,1.499957 -4.026561,2.401329 -19.260665,14.162992 -23.958772,18.497645 -1.028218,0.948673 -4.393296,4.024335 -7.477952,6.834805 -10.824381,9.862239 -23.575728,22.906325 -31.340767,32.060267 -6.986996,8.236735 -10.812469,13.682472 -12.277173,17.4771 -0.638649,1.65456 -0.715214,2.19751 -0.57368,4.06823 0.205103,2.71096 0.718614,3.99438 2.859595,7.14702 6.543919,9.63606 17.114413,21.90214 28.682483,33.28339 5.641557,5.55045 20.39633,18.94533 26.705487,24.24414 8.051761,6.76236 17.102044,12.90302 21.285035,14.442 1.595617,0.58704 4.986676,0.33095 7.162206,-0.54088 z m -7.701947,-4.7529 c -5.111988,-2.76008 -12.125971,-7.80395 -18.838687,-13.5472 -6.120189,-5.23631 -18.747542,-16.63562 -23.545031,-21.25523 -10.53772,-10.147 -20.453286,-21.3675 -27.737752,-31.38817 -3.521236,-4.8439 -3.754888,-5.26117 -4.093972,-7.31128 -0.227488,-1.37538 -0.172813,-1.79739 0.419944,-3.24145 0.953583,-2.32308 2.175543,-4.238573 5.444137,-8.533978 3.387716,-4.451958 8.358069,-10.305495 13.844907,-16.305028 8.900276,-9.731923 27.531689,-27.306955 37.237947,-35.126594 5.298031,-4.268246 15.306951,-11.679942 16.69328,-12.361526 0.741284,-0.364449 1.689013,-0.492097 3.595169,-0.484226 3.104035,0.01282 4.931395,0.667557 8.581105,3.074584 4.15223,2.738445 13.91526,10.615666 20.37913,16.442725 1.38135,1.245264 3.62026,3.21929 4.97535,4.386724 3.38802,2.918833 14.10359,13.628865 19.06073,19.050874 7.34915,8.038335 13.98508,16.082065 19.77258,23.967322 3.22611,4.395473 4.45479,6.705023 4.45511,8.374313 2.9e-4,2.14503 -3.83255,8.62775 -8.43542,14.26684 -7.98333,9.78059 -15.60279,17.9692 -27.26992,29.30693 -9.83556,9.55788 -16.83508,15.71712 -25.2685,22.23507 -9.09107,7.02623 -12.8602,9.31592 -15.657917,9.51199 -1.26732,0.0889 -1.733449,-0.0483 -3.61219,-1.06269 z m 9.574767,-22.06736 c 0.14302,-0.1548 -1.14235,-29.83023 -1.39136,-32.12214 l -0.15374,-1.41507 -5.740534,0 -5.740533,0 1.7e-5,1.27529 c 3.2e-5,2.09654 -0.839857,21.56774 -1.15004,26.66145 -0.158403,2.60126 -0.288007,4.91944 -0.288007,5.15151 0,0.31685 0.447754,0.45014 1.797584,0.53512 2.478027,0.15599 12.505913,0.0878 12.666613,-0.0861 z m 2.21739,-36.22492 c 11.1433,-1.09414 21.87348,-3.88428 27.46058,-7.1405 5.40963,-3.1528 7.56156,-7.58269 5.54728,-11.41952 -0.97707,-1.86114 -3.69289,-4.318657 -6.58927,-5.962575 -1.51877,-0.862015 -2.20331,-1.400705 -2.01519,-1.585815 0.15669,-0.154186 1.09367,-0.49819 2.08217,-0.76445 l 1.79726,-0.484106 -2.56497,-0.49619 c -1.41073,-0.272902 -5.9092,-1.323328 -9.99661,-2.334281 -4.08741,-1.010953 -7.48265,-1.787893 -7.54502,-1.726533 -0.0623,0.06136 0.2542,1.058268 0.70347,2.21535 0.44926,1.157078 1.11022,2.995276 1.46882,4.084882 0.35859,1.089605 0.73426,2.071458 0.83483,2.1819 0.10055,0.110432 1.21614,-0.05972 2.47906,-0.378051 3.50423,-0.883345 4.24224,-0.829619 7.04845,0.513068 4.34966,2.081181 6.30536,4.347171 6.3185,7.320921 0.009,2.02691 -1.09552,3.63784 -3.62559,5.28815 -2.8754,1.87556 -3.89572,2.33448 -7.69071,3.45916 -7.57954,2.24625 -14.95404,3.26564 -23.620671,3.26512 -9.084504,-5.7e-4 -17.252309,-1.15571 -24.129462,-3.41261 -5.1522,-1.69081 -7.854579,-3.53693 -8.948471,-6.11313 -0.661839,-1.55867 -0.526563,-2.41 0.673185,-4.23656 2.454908,-3.73749 6.485237,-5.968998 14.516905,-8.037711 l 2.534483,-0.652811 -2.390676,-1.4816 c -1.314871,-0.814874 -3.713234,-2.331629 -5.329694,-3.370567 l -2.939023,-1.888975 -1.662794,0.338166 c -5.396795,1.097553 -14.05203,5.382662 -17.75284,8.789231 -3.532739,3.251857 -4.800281,7.298197 -3.237087,10.333687 1.578808,3.06581 5.963649,6.15558 11.854343,8.35315 8.337574,3.11038 17.889801,5.05276 28.180962,5.73039 2.760557,0.18177 13.24257,-0.0637 16.53778,-0.38719 z m -6.08208,-6.40906 1.76788,-0.18183 -0.003,-2.29455 c -0.002,-1.26201 -0.25917,-8.08928 -0.57192,-15.171719 -0.31275,-7.082432 -0.57012,-13.462212 -0.57193,-14.177285 l -0.003,-1.300132 4.36224,-0.185793 c 2.39923,-0.102186 4.40855,-0.231362 4.46515,-0.287059 0.0566,-0.0557 -1.30994,-3.844508 -3.03677,-8.419582 -1.72682,-4.575073 -4.51597,-12.139011 -6.1981,-16.80875 -1.682134,-4.669739 -3.160902,-8.735414 -3.286151,-9.034835 -0.169224,-0.404541 -0.609146,0.613369 -1.712391,3.962202 -0.816567,2.478633 -3.543238,10.301325 -6.059273,17.383763 -3.935119,11.077053 -4.508891,12.90405 -4.104512,13.069526 0.258553,0.105805 2.055565,0.201322 3.993361,0.212261 l 3.523266,0.0199 -0.0062,1.485826 c -0.0035,0.817204 -0.319456,8.172043 -0.702312,16.344078 -0.38286,8.172043 -0.606563,14.945273 -0.497117,15.051613 0.431247,0.41902 5.793526,0.62527 8.6414,0.33237 z m 32.06291,88.82473 c -2.1472,-0.75505 -3.39009,-1.81003 -4.30846,-3.6571 -0.66255,-1.33256 -0.80189,-1.97565 -0.78234,-3.61079 0.0272,-2.27355 0.49459,-3.56115 1.84013,-5.06913 1.30903,-1.46706 2.94103,-2.21591 5.16835,-2.37153 2.28451,-0.15961 3.85006,0.22911 5.41479,1.34447 3.35065,2.38839 4.0996,7.13757 1.68385,10.67763 -1.77883,2.60671 -5.81941,3.81062 -9.01632,2.68645 z m 5.60451,-2.39745 c 3.57432,-2.32755 2.97986,-8.64846 -0.95123,-10.11438 -2.90062,-1.08167 -6.09004,0.39289 -7.05172,3.26019 -0.54151,1.61454 -0.24534,4.12701 0.64202,5.44645 1.58118,2.35113 4.929,2.99137 7.36093,1.40774 z m -5.98773,-4.90697 0,-4.13187 2.61361,0.0989 c 2.44905,0.0927 2.65732,0.14892 3.30755,0.89298 0.90688,1.03773 0.90218,2.28143 -0.012,3.181 -0.38828,0.38207 -0.84289,0.69467 -1.01025,0.69467 -0.16736,0 5.7e-4,0.47759 0.37301,1.0613 1.50264,2.35455 1.50079,2.33487 0.21974,2.33487 -1.10459,0 -1.17534,-0.0584 -2.0683,-1.70694 -0.50852,-0.93883 -1.06616,-1.66107 -1.23922,-1.60498 -0.17305,0.056 -0.35346,0.82422 -0.40089,1.70695 -0.0844,1.56942 -0.10506,1.60497 -0.93475,1.60497 l -0.84849,0 0,-4.13187 z m 4.28394,-1.06802 c 0.51605,-0.61185 0.0803,-1.2372 -1.00121,-1.43685 -1.25875,-0.23237 -1.55705,-0.0421 -1.55705,0.99316 0,0.77801 0.0728,0.83234 1.11524,0.83234 0.61337,0 1.26274,-0.17489 1.44302,-0.38865 z m 100.40739,-88.05337 0,-81.649676 23.00908,0 23.00908,0 0,81.649676 0,81.64967 -23.00908,0 -23.00908,0 0,-81.64967 z m 69.9615,0.0707 0.0724,-81.578919 63.20308,-0.07138 63.20308,-0.07139 0,15.990951 0,15.990951 -40.2659,0 -40.2659,0 0,16.697854 0,16.697854 36.95834,0 36.95834,0 0,15.84774 0,15.84773 -36.88643,0.0718 -36.88644,0.0718 -0.0741,17.19312 -0.0741,17.19313 40.26814,0 40.26811,0 0,15.84881 0,15.84881 -63.27546,0 -63.27547,0 0.0724,-81.57892 z m 152.07615,-0.0707 0,-81.649676 63.13117,0 63.13118,0 0,15.990318 0,15.990318 -40.12209,0 -40.12209,0 0,16.697854 0,16.697854 36.95834,0 36.95834,0 0,15.848802 0,15.84881 -36.95834,0 -36.95834,0 0,17.26389 0,17.26388 40.12209,0 40.12209,0 0,15.84881 0,15.84881 -63.13118,0 -63.13117,0 0,-81.64967 z m 151.85995,0 0,-81.649676 63.13118,0 63.13118,0 0,15.990318 0,15.990318 -40.12209,0 -40.1221,0 0,16.697854 0,16.697854 36.95835,0 36.95834,0 0,15.848802 0,15.84881 -36.95834,0 -36.95835,0 0,17.26389 0,17.26388 40.1221,0 40.12209,0 0,15.84881 0,15.84881 -63.13118,0 -63.13118,0 0,-81.64967 z"
       id="path3444"
       inkscape:connector-curvature="0" />
    <path
       style="fill:#79b5d3"
       d="m 95.197054,212.74547 c -2.186404,-0.57878 -2.996499,-1.25496 -4.517184,-3.77054 -3.031498,-5.01481 -16.532857,-22.54034 -22.12896,-28.72465 -1.265499,-1.39851 -3.331235,-3.69695 -4.590522,-5.10762 -19.760854,-22.13647 -45.690363,-44.89499 -71.0518404,-62.36272 -4.4111476,-3.03817 -5.6249486,-4.48777 -5.8339006,-6.96714 -0.168553,-2.00003 0.328452,-3.37959 1.773457,-4.92269 0.651369,-0.69559 4.2794614,-3.435607 8.0624269,-6.088934 C 16.985917,80.720556 35.107179,65.240137 52.131634,47.627544 65.704111,33.586182 72.277597,26.000152 85.072022,9.6131913 c 7.634304,-9.77793431 7.948899,-10.13652195 9.609088,-10.952863 2.290758,-1.1264012 3.849379,-1.1243603 6.10848,0.008 0.93485,0.46858398 1.89942,1.00984916 2.14351,1.20281154 0.24408,0.19296257 2.30893,2.96164936 4.58855,6.15263766 5.09816,7.1363407 13.89573,18.0905317 21.3658,26.6033607 4.42911,5.047388 22.81647,23.905293 28.11265,28.832094 8.75916,8.148236 16.25785,14.573165 24.87055,21.309243 8.32813,6.513516 20.4395,15.178983 22.67213,16.221485 1.78633,0.83412 3.60157,3.57469 4.08737,6.17093 0.53243,2.84552 -1.66884,5.73416 -6.30886,8.27885 -2.73212,1.49835 -13.92501,9.64891 -21.02826,15.3126 -12.98597,10.35417 -21.14288,17.61221 -33.80526,30.08002 -16.98804,16.727 -29.45719,31.0936 -42.75728,49.26375 -3.62925,4.95816 -5.296057,5.77105 -9.533436,4.64936 z m 6.305306,-27.45559 c 3.35795,-0.96317 8.44701,-4.26042 17.23712,-11.16809 16.9228,-13.29872 37.98314,-34.10835 52.11647,-51.49606 3.05673,-3.76056 5.77238,-7.84076 7.51522,-11.29144 1.46477,-2.90012 1.48618,-2.97997 1.48618,-5.54076 0,-2.48178 -0.054,-2.70508 -1.20328,-4.98188 -2.57248,-5.096007 -13.53659,-18.950336 -24.6197,-31.109617 -4.29453,-4.71152 -19.8286,-20.039103 -21.25238,-20.969873 -0.57272,-0.374405 -2.52777,-2.029513 -4.34455,-3.678025 -5.0126,-4.548334 -13.19632,-11.172497 -18.17761,-14.713537 -6.36975,-4.528061 -12.583567,-5.797021 -17.494672,-3.57269 -1.694798,0.767603 -12.083609,8.372938 -18.296711,13.394467 -8.224554,6.647214 -23.960757,21.274014 -32.422793,30.13698 -14.543282,15.23234 -23.56511,26.63859 -25.428846,32.149575 -0.763444,2.25746 -0.657332,5.01303 0.286547,7.44115 1.121083,2.884 10.241628,14.81244 17.744324,23.20719 9.60698,10.74924 23.120792,23.66643 38.525983,36.82509 8.225986,7.0264 18.128144,13.87602 22.269115,15.40422 1.395092,0.51485 4.195822,0.49789 6.059583,-0.0367 z m -6.634811,-5.41965 C 88.738769,176.43258 82.582813,171.93489 75.022215,165.3708 50.185474,143.80756 34.89647,127.89222 23.492086,111.72968 c -2.080222,-2.94814 -2.239433,-3.26968 -2.55066,-5.15135 -0.237457,-1.43565 -0.183184,-1.77337 0.567528,-3.53155 4.742843,-11.107802 38.10935,-45.687948 61.34723,-63.578606 5.352125,-4.12056 10.809365,-7.977411 12.109623,-8.558355 2.549593,-1.139142 6.792203,-0.348832 10.714363,1.995861 1.03858,0.620871 4.24001,2.963461 7.1143,5.205757 20.63598,16.09861 40.11156,35.68744 55.46579,55.788329 5.61445,7.350134 7.13908,9.923494 7.13908,12.049824 0,1.70297 -3.45536,7.72538 -7.13225,12.43093 -13.00959,16.64918 -36.8227,40.12184 -54.44511,53.66675 -8.69198,6.68081 -12.3471,8.89174 -15.021137,9.08605 -1.349279,0.098 -1.717352,-0.0202 -3.933294,-1.26309 z m 9.863361,-21.86769 c 0.10364,-0.11138 -1.38594,-33.53721 -1.49454,-33.53721 -0.0154,0 -2.61659,0 -5.78033,0 l -5.752251,0 6e-6,1.07117 c 1.1e-5,2.14461 -0.878323,22.53643 -1.154392,26.80092 -0.405964,6.271 -0.561611,5.61763 1.370108,5.75147 2.277769,0.15783 12.649239,0.0879 12.811399,-0.0863 z m 3.51067,-36.36572 c 5.57802,-0.64265 8.69559,-1.18912 13.94926,-2.44513 11.82039,-2.82591 18.57596,-7.55557 18.54105,-12.98079 -0.02,-3.11297 -2.39314,-6.06885 -7.05007,-8.78134 -1.42344,-0.82911 -2.48806,-1.604664 -2.36582,-1.723445 0.12226,-0.118781 1.11659,-0.45637 2.20964,-0.750196 l 1.98736,-0.534227 -3.28162,-0.641471 c -3.4118,-0.666924 -16.51507,-3.865255 -16.97064,-4.142309 -0.42145,-0.256306 -0.32515,0.09092 1.26039,4.544868 1.72318,4.840567 1.20251,4.489025 5.28739,3.569992 l 2.63764,-0.593425 2.3956,0.98891 c 5.51501,2.276613 8.06496,5.724483 6.86959,9.288573 -0.44823,1.33646 -3.12709,3.73173 -5.64828,5.05035 -3.11588,1.62966 -10.29278,3.57222 -17.08916,4.62549 -4.62263,0.7164 -16.075666,0.8851 -21.097718,0.31077 -10.008462,-1.14459 -18.242605,-3.52711 -21.63021,-6.2586 -1.323908,-1.0675 -2.715014,-3.47271 -2.715014,-4.69424 0,-1.11905 2.148723,-4.0943 3.998792,-5.53695 2.26879,-1.769183 5.17717,-3.058389 9.898292,-4.387661 2.243319,-0.631622 4.113083,-1.179567 4.155029,-1.217651 0.04194,-0.03811 -0.734611,-0.553859 -1.725681,-1.146161 -0.991071,-0.592303 -3.376647,-2.08372 -5.301276,-3.314267 l -3.499331,-2.237357 -1.821519,0.319727 c -3.410361,0.59861 -10.222913,3.597847 -14.511775,6.388831 -2.697731,1.755549 -5.200311,4.284953 -6.183199,6.249459 -0.550501,1.1003 -0.68427,1.81738 -0.68427,3.6681 0,2.21021 0.04387,2.36313 1.118302,3.89821 2.014385,2.87802 6.332505,5.57184 12.470187,7.7794 7.555838,2.71762 17.686222,4.69383 26.821214,5.23219 3.595514,0.21189 14.269097,-0.1026 17.975847,-0.52965 z m -5.68458,-6.48324 c 0.10318,-0.10152 -0.0627,-6.32608 -0.36861,-13.83235 -0.30591,-7.506284 -0.55748,-14.857665 -0.55906,-16.336415 l -0.003,-2.688638 4.29942,-0.221303 c 2.36469,-0.121716 4.35214,-0.273168 4.41656,-0.336561 0.0644,-0.06339 -1.01107,-3.084037 -2.38997,-6.712551 -1.37891,-3.628512 -4.24761,-11.370056 -6.3749,-17.203434 -2.127293,-5.833376 -3.91685,-10.654406 -3.9768,-10.713394 -0.05995,-0.05899 -0.572435,1.340679 -1.138858,3.110377 -0.56642,1.769701 -3.286111,9.579918 -6.043756,17.356038 -3.633309,10.245365 -4.918752,14.197914 -4.668364,14.354528 0.190043,0.118869 1.995716,0.218077 4.012606,0.22046 l 3.667084,0.0043 -0.0039,1.344319 c -0.002,0.739376 -0.320324,8.093139 -0.707084,16.341697 -0.386762,8.248548 -0.611509,15.085458 -0.49944,15.193118 0.112068,0.10765 0.721464,0.25494 1.354214,0.32728 1.600126,0.18297 8.754849,0.0177 8.983719,-0.2075 z m 31.05713,89.25277 c -4.46204,-1.09682 -6.76863,-5.38498 -5.39808,-10.03548 1.42728,-4.84297 8.47295,-6.58326 12.59533,-3.11107 3.16703,2.66751 3.33577,8.20621 0.33983,11.15425 -1.78067,1.75219 -5.02504,2.60979 -7.53708,1.9923 z m 4.19403,-2.14616 c 2.32637,-1.1592 3.17913,-2.74928 3.03027,-5.65031 -0.0921,-1.79511 -0.2187,-2.19466 -0.99438,-3.139 -1.28617,-1.56584 -2.39434,-2.11305 -4.27918,-2.11305 -1.88485,0 -2.99301,0.54721 -4.27919,2.11305 -0.77569,0.94434 -0.90225,1.34389 -0.99437,3.139 -0.11177,2.17813 0.39291,3.69182 1.58444,4.75209 1.47267,1.31046 4.25856,1.73226 5.93241,0.89822 z m -5.26323,-5.37777 0,-4.13833 2.57608,0.1212 c 1.95188,0.0918 2.71455,0.24448 3.14745,0.62999 1.2259,1.09169 0.97699,3.33011 -0.42879,3.85605 -0.53413,0.19983 -0.67654,0.38489 -0.4861,0.63171 0.14815,0.19198 0.62066,0.95401 1.05003,1.69339 l 0.78068,1.34431 -1.15844,0 c -1.12733,0 -1.18182,-0.0456 -2.02955,-1.69808 -0.47912,-0.93395 -1.0634,-1.69809 -1.2984,-1.69809 -0.33049,0 -0.42728,0.38467 -0.42728,1.69809 0,1.69808 0,1.69808 -0.86284,1.69808 l -0.86284,0 0,-4.13832 z m 4.42225,-1.30191 c 0.43102,-0.67685 -0.0446,-1.07663 -1.5113,-1.2702 l -1.18527,-0.15644 0,1.04409 0,1.04408 1.19307,-0.0871 c 0.7435,-0.0542 1.31004,-0.27071 1.5035,-0.57451 z m 100.26908,-87.81303 0,-81.649676 23.00908,0 23.00908,0 0,81.649676 0,81.64967 -23.00908,0 -23.00908,0 0,-81.64967 z m 69.9615,0.0707 0.0724,-81.578919 63.13118,0 63.13117,0 0,15.848811 0,15.84881 -40.19399,0.07173 -40.194,0.07174 0,16.696867 0,16.696869 36.95834,0 36.95834,0 0,15.848803 0,15.84881 -36.95834,0 -36.95834,0 0,17.26389 0,17.26388 40.2659,0 40.2659,0 0,15.84881 0,15.84881 -63.27547,0 -63.27547,0 0.0724,-81.57892 z m 152.07615,-0.0707 0,-81.649676 63.13117,0 63.13118,0 0,15.990318 0,15.990318 -40.12209,0 -40.12209,0 0,16.697854 0,16.697854 36.95834,0 36.95834,0 0,15.848802 0,15.84881 -36.95834,0 -36.95834,0 0,17.26389 0,17.26388 40.12209,0 40.12209,0 0,15.84881 0,15.84881 -63.13118,0 -63.13117,0 0,-81.64967 z m 151.93137,0.0707 0.0724,-81.578919 63.05928,-0.07138 63.05927,-0.07139 0,15.990953 0,15.990952 -40.12209,0 -40.1221,0 0,16.697854 0,16.697854 36.95835,0 36.95834,0 0,15.848807 0,15.84881 -36.95834,0 -36.95835,0 0,17.26389 0,17.26388 40.1221,0 40.12209,0 0,15.84881 0,15.84881 -63.13167,0 -63.13167,0 0.0724,-81.57892 z"
       id="path3442"
       inkscape:connector-curvature="0" />
    <path
       style="fill:#4195c1"
       d="m 96.095573,212.89206 c -2.47446,-0.48058 -3.672845,-1.2243 -4.713247,-2.92508 -4.139768,-6.76743 -18.074101,-24.68526 -25.707551,-33.05675 -23.030344,-25.25701 -44.773373,-44.57277 -70.1777055,-62.34345 -6.1881215,-4.32868 -6.9132825,-4.96097 -7.7979765,-6.7993 -1.145575,-2.38041 -0.780961,-4.69059 1.066224,-6.75554 0.592004,-0.6618 3.0606744,-2.59015 5.4859363,-4.285227 C 8.492437,86.7732 19.06859,78.522991 30.010696,68.831611 50.007223,51.120766 66.944658,32.934587 84.947517,9.8444717 89.195224,4.3964427 92.873723,-0.2179002 93.121957,-0.40962411 94.13381,-1.191133 96.183983,-1.9994116 97.460558,-2.120113 c 1.092791,-0.1033242 1.715992,0.040181 3.199012,0.7366427 1.013,0.475731 2.11728,1.15893086 2.45394,1.51822198 0.33667,0.35929112 2.38904,3.13670852 4.56083,6.17203882 5.06473,7.0785535 12.56587,16.4209285 20.71331,25.7976215 4.7107,5.421437 22.84555,24.051462 28.91276,29.70223 10.9843,10.230365 22.15457,19.490214 33.77387,27.997603 6.3621,4.658182 12.78034,9.048274 13.22844,9.048274 0.60418,0 3.00842,2.754461 3.64149,4.171931 0.36387,0.81472 0.60553,1.96186 0.61165,2.90343 0.0192,2.94647 -1.64809,4.93074 -6.29705,7.49437 -4.12964,2.27725 -19.38866,13.74805 -29.11349,21.88573 -20.59454,17.2334 -39.23004,36.0486 -55.69475,56.23178 -3.56844,4.37436 -11.7736,15.06116 -13.59332,17.70459 -1.23565,1.795 -2.99556,3.28736 -4.295623,3.6426 -1.242672,0.33955 -1.740243,0.34028 -3.466054,0.005 z m 6.329077,-27.84275 c 2.47596,-0.85984 5.04888,-2.44206 10.48438,-6.44737 8.76083,-6.45566 15.45203,-12.08791 25.769,-21.69079 6.2091,-5.77935 19.2391,-18.99292 22.50624,-22.82333 0.92938,-1.0896 3.11834,-3.63673 4.86436,-5.66029 6.68765,-7.75071 9.90526,-12.21599 12.43295,-17.25397 l 1.56693,-3.12307 -0.11146,-2.54713 c -0.0943,-2.15669 -0.25408,-2.83898 -1.04195,-4.45117 C 176.67138,96.501914 165.75492,82.601468 155.38611,71.117105 150.78188,66.017513 136.97844,52.246696 134.22044,50.001449 133.0942,49.084593 131.124,47.376875 129.84221,46.206514 124.53468,41.360378 114.21569,33.000739 109.94431,30.08679 105.45678,27.025383 101.88209,25.726657 97.887492,25.706406 94.703555,25.690264 93.304148,26.16318 90.121926,28.330708 85.407652,31.541774 76.495418,38.326607 71.86098,42.232662 68.380844,45.165833 56.783268,55.708631 51.895647,60.382182 36.248944,75.34359 21.077473,92.977139 17.437568,100.43224 c -1.198747,2.45523 -1.232323,2.60127 -1.232323,5.36028 0,2.63028 0.06755,2.96944 0.930036,4.66973 2.465751,4.86095 12.828347,17.82037 22.512297,28.1538 9.457971,10.09231 29.510634,28.46645 40.12026,36.76196 3.94951,3.08807 10.418387,7.35458 13.740585,9.06254 2.36947,1.21815 2.65941,1.29705 4.745623,1.29145 1.595808,-0.005 2.771104,-0.19668 4.170604,-0.68269 z m -6.838067,-4.8359 c -2.904597,-1.50289 -9.579248,-5.95136 -13.086416,-8.72175 -11.870642,-9.37691 -34.427669,-30.40269 -43.315879,-40.37549 -6.446277,-7.23288 -12.770099,-15.14353 -16.419427,-20.53955 -1.467691,-2.17017 -1.613276,-2.52967 -1.736104,-4.28707 -0.128615,-1.84017 -0.07872,-2.0265 1.225872,-4.57819 C 25.667464,95.036116 36.924376,81.970266 52.28444,66.855892 66.41236,52.953958 75.930496,44.607774 86.960337,36.449581 c 8.024021,-5.934943 8.048629,-5.948155 11.046224,-5.930548 4.039559,0.02372 6.526229,1.255656 13.637699,6.756319 18.60028,14.387154 36.34084,31.639694 50.95063,49.549057 8.7825,10.765979 12.80445,16.714821 12.80445,18.938951 0,1.13257 -1.83205,4.88872 -3.92691,8.05113 -7.8416,11.83773 -30.58906,35.64061 -48.56256,50.81577 -8.33401,7.03646 -17.14699,13.58827 -20.46193,15.21195 -3.300848,1.61678 -4.344865,1.67326 -6.861357,0.3712 z m 9.180527,-22.23468 c 0.18078,-0.17855 -1.1711,-31.22612 -1.42456,-32.71677 l -0.15328,-0.90146 -5.742736,0.003 c -4.844433,0.002 -5.742734,0.0675 -5.742734,0.41644 0,1.42905 -0.919158,22.31159 -1.153528,26.20723 -0.156497,2.60125 -0.284539,5.23658 -0.284539,5.85628 0,1.11869 0.0087,1.12755 1.222357,1.24271 1.833594,0.17398 13.0863,0.0831 13.27902,-0.10726 z m -0.52198,-35.92276 c 11.46354,-0.88631 21.45887,-3.11078 27.86838,-6.20215 4.29413,-2.0711 6.60181,-4.01482 7.9384,-6.68639 0.806,-1.61105 0.89422,-2.01576 0.74649,-3.4243 -0.32584,-3.10652 -2.98838,-6.12334 -7.63744,-8.653678 -2.41472,-1.314244 -2.38638,-1.394742 0.77603,-2.204352 l 1.8333,-0.469352 -3.26645,-0.63416 c -2.67602,-0.51952 -15.45307,-3.587799 -17.28128,-4.149913 -0.43436,-0.133555 -0.40282,0.09002 0.25039,1.774631 0.41105,1.06009 1.13829,3.07364 1.61609,4.474561 0.47781,1.400922 0.90646,2.591601 0.95256,2.64595 0.0461,0.05434 1.24105,-0.168517 2.65545,-0.495276 3.5008,-0.808742 4.05834,-0.764997 6.88974,0.540624 3.17856,1.465705 4.84889,2.824215 5.71006,4.644065 0.8137,1.71953 0.85656,3.0237 0.14955,4.55125 -2.4118,5.21091 -16.13012,9.50441 -31.81993,9.95885 -15.89531,0.4604 -31.505932,-3.24046 -34.892961,-8.27217 -1.248479,-1.85472 -1.371551,-2.93388 -0.522605,-4.58241 1.820973,-3.53606 6.090921,-6.250293 12.837901,-8.160547 1.977343,-0.559849 3.839761,-1.109671 4.138704,-1.221849 0.433218,-0.162544 -0.150534,-0.626603 -2.876136,-2.286389 -1.880817,-1.145344 -4.238028,-2.648227 -5.238245,-3.339739 -1.710541,-1.18261 -1.898482,-1.245904 -3.163749,-1.06549 -5.201637,0.741696 -15.217158,5.712549 -18.871178,9.366039 -2.221061,2.220745 -3.113946,4.035725 -3.267236,6.641355 -0.141583,2.40666 0.136375,3.19618 1.864257,5.29535 2.177574,2.64547 7.580938,5.57018 14.18336,7.67709 7.586693,2.421 13.94401,3.59393 23.728117,4.37783 2.761262,0.22123 11.297931,0.16349 14.698431,-0.0994 z m -1.50508,-6.7995 c 0.0736,-0.0724 -0.17469,-7.36 -0.55183,-16.194558 -0.37713,-8.834566 -0.6116,-16.252833 -0.52105,-16.485044 0.13615,-0.349127 0.9362,-0.422198 4.62266,-0.422198 4.13065,0 4.44322,-0.03637 4.25674,-0.495275 -1.55748,-3.832798 -10.43297,-27.831862 -12.682102,-34.292078 -0.241052,-0.692372 -0.594057,0.009 -1.55529,3.089732 -0.509945,1.634408 -3.178455,9.321178 -5.930022,17.081709 -2.75157,7.760532 -5.002853,14.223875 -5.002853,14.362985 0,0.13911 1.811965,0.252927 4.026589,0.252927 3.644087,0 4.026345,0.04705 4.024013,0.495275 -0.0014,0.272402 -0.324121,7.372527 -0.717122,15.778052 -0.393,8.405533 -0.715407,15.624563 -0.716456,16.042283 -0.0014,0.60801 0.155837,0.7862 0.789024,0.89345 0.98671,0.16712 9.775069,0.0724 9.957699,-0.10726 z m 31.34181,89.14434 c -1.76738,-0.33758 -3.36231,-1.23446 -4.4798,-2.51911 -1.21871,-1.40103 -1.65895,-2.77497 -1.65895,-5.17744 0,-5.68097 6.25443,-9.08101 11.51857,-6.26172 2.55108,1.36626 3.72668,3.43065 3.72214,6.53616 -0.005,3.23094 -1.53185,5.64774 -4.3114,6.82312 -1.6288,0.68878 -3.25559,0.89218 -4.79056,0.59899 z m 4.68771,-2.70035 c 1.54771,-1.23262 2.224,-2.68848 2.224,-4.78755 0,-2.42645 -0.97485,-4.05194 -3.03628,-5.06277 -1.65447,-0.81127 -2.53832,-0.90027 -4.00329,-0.40311 -3.862,1.31064 -5.19566,6.38796 -2.4696,9.40193 1.37333,1.51837 2.34729,1.91429 4.42929,1.80052 1.47352,-0.0806 1.97436,-0.24695 2.85588,-0.94902 z m -6.22464,-4.78343 0,-4.10371 1.79758,0.002 c 2.24947,0.002 3.86098,0.42939 4.23892,1.12426 0.7174,1.31904 0.0905,3.4024 -1.02381,3.4024 -0.57239,0 -0.53893,0.11429 0.58674,2.00423 l 0.99762,1.67496 -1.07505,0 c -1.01677,0 -1.12643,-0.092 -2.02372,-1.69809 -0.52179,-0.93395 -1.13408,-1.69809 -1.36065,-1.69809 -0.31176,0 -0.41195,0.41302 -0.41195,1.69809 0,1.69809 0,1.69809 -0.86284,1.69809 l -0.86284,0 0,-4.10371 z m 4.55859,-1.39636 c 0.13903,-0.71939 -0.69497,-1.29227 -1.88124,-1.29227 -0.89867,0 -0.95167,0.056 -0.95167,1.00606 l 0,1.00606 1.36357,-0.0862 c 1.08061,-0.0684 1.38552,-0.19983 1.46934,-0.63358 z m 100.13274,-87.61169 0,-81.508162 23.00908,0 23.00908,0 0,81.508162 0,81.50817 -23.00908,0 -23.00908,0 0,-81.50817 z m 70.1777,0 0,-81.508162 63.13117,0 63.13118,0 0,15.707304 0,15.707303 -40.2659,0 -40.2659,0 0,16.839361 0,16.839362 36.95834,0 36.95834,0 0,15.848802 0,15.84881 -36.95834,0 -36.95834,0 0,17.26389 0,17.26388 40.2659,0 40.2659,0 0,15.84881 0,15.84881 -63.13118,0 -63.13117,0 0,-81.50817 z m 151.85995,0 0,-81.508162 63.13117,0 63.13118,0 0,15.707304 0,15.707303 -40.12209,0 -40.12209,0 0,16.838289 0,16.838291 36.88643,0.07182 36.88644,0.07183 0.0743,15.778056 0.0743,15.77805 -36.96075,0 -36.96076,0 0,17.26389 0,17.26388 40.12209,0 40.12209,0 0,15.84881 0,15.84881 -63.13118,0 -63.13117,0 0,-81.50817 z m 151.85995,0 0,-81.508162 63.13118,0 63.13118,0 0,15.707304 0,15.707303 -40.12209,0 -40.1221,0 0,16.839361 0,16.839362 36.95835,0 36.95834,0 0,15.848802 0,15.84881 -36.95834,0 -36.95835,0 0,17.26389 0,17.26388 40.1221,0 40.12209,0 0,15.84881 0,15.84881 -63.13118,0 -63.13118,0 0,-81.50817 z"
       id="path3440"
       inkscape:connector-curvature="0" />
    <path
       style="fill:#2b89ba"
       d="m 94.723743,212.51282 c -1.814597,-0.56257 -2.407843,-1.04425 -3.522576,-2.86013 -1.538609,-2.50638 -5.050689,-7.53168 -7.516127,-10.75455 -4.819132,-6.29966 -13.162398,-16.59995 -15.817747,-19.528 -1.552771,-1.71224 -4.614771,-5.08719 -6.804447,-7.49989 C 55.618134,165.871 37.741103,148.33843 31.59257,142.96783 18.995456,131.96457 6.4760387,122.13208 -5.6533846,113.71565 c -2.2146243,-1.5367 -4.3940584,-3.12162 -4.8431854,-3.52204 -2.942636,-2.62354 -3.16196,-6.63928 -0.516735,-9.46119 0.416958,-0.4448 3.993756,-3.083477 7.9484422,-5.863716 C 11.281214,84.783068 22.76453,75.580906 34.952382,64.403563 53.517986,47.377254 68.721966,30.770406 85.232496,9.4841113 c 6.870961,-8.85842535 7.607781,-9.71079702 9.077414,-10.5009749 2.84943,-1.5320548 4.67892,-1.4571225 7.52947,0.30839234 1.09949,0.68098018 2.15276,1.94826376 5.44199,6.54772086 5.61193,7.8473924 16.64666,21.4346434 23.93901,29.4765244 4.64823,5.125987 21.90174,22.620595 26.6868,27.059708 11.35681,10.53576 21.53707,18.942257 33.59852,27.744477 7.42949,5.421895 12.25425,8.73256 12.72629,8.73256 0.66897,0 2.74354,2.345471 3.50458,3.962201 1.40853,2.99229 0.78682,6.02008 -1.65976,8.0834 -0.6584,0.55525 -2.36191,1.66561 -3.7856,2.46748 -4.26467,2.40197 -18.95918,13.44701 -28.90516,21.72639 -25.03701,20.84165 -48.99107,46.12489 -67.15516,70.88151 -3.46198,4.71847 -4.52536,5.94408 -5.66869,6.53348 -0.959239,0.4945 -4.251633,0.4978 -5.838457,0.006 z m 7.544747,-27.3635 c 2.58564,-0.87536 4.95419,-2.32574 10.54564,-6.45758 9.01982,-6.66526 15.56456,-12.16779 25.65655,-21.57087 14.00905,-13.05275 30.44169,-31.00741 36.5111,-39.8928 2.39746,-3.50979 4.61015,-7.8039 5.01843,-9.7391 0.4273,-2.02539 0.017,-4.21564 -1.27346,-6.79686 -2.255,-4.5107 -14.1386,-19.529584 -23.8489,-30.141034 -4.61196,-5.039955 -18.50786,-18.868215 -20.90332,-20.801563 -0.96431,-0.77829 -3.00582,-2.548141 -4.53669,-3.933002 -6.42582,-5.812956 -18.20439,-15.169972 -21.5798,-17.1432 -2.95285,-1.726207 -6.38872,-2.871134 -9.145397,-3.047501 -3.68472,-0.235743 -5.488175,0.43373 -10.206009,3.788646 -11.260603,8.007566 -19.06761,14.531587 -33.180683,27.727839 -18.913314,17.684658 -35.888295,37.436526 -38.666593,44.991945 -0.977137,2.65727 -0.995712,3.73618 -0.118911,6.9068 1.039243,3.75805 11.617425,17.31355 22.968738,29.43351 10.289371,10.98611 32.293073,31.01938 42.085097,38.31638 5.676298,4.22997 12.230654,8.17915 14.700521,8.85746 1.567986,0.43061 3.771327,0.24654 5.973687,-0.49907 z m -6.133776,-4.74896 C 91.851053,178.38908 84.221925,173.07167 77.610737,167.48936 65.689676,157.42353 48.084736,140.853 40.470383,132.53124 c -8.304559,-9.07608 -18.4971,-22.2206 -19.202366,-24.76376 -0.172669,-0.62264 -0.314663,-1.66038 -0.315544,-2.3061 -0.0083,-6.087256 21.979713,-31.052545 47.167017,-53.553599 7.840837,-7.004605 11.630568,-10.086407 19.977875,-16.245962 6.680377,-4.929515 7.880988,-5.514367 10.660281,-5.192939 3.604914,0.416911 6.702154,2.021151 12.360074,6.401991 22.96547,17.781808 43.54966,38.659726 59.64481,60.495907 2.85529,3.873752 4.25801,6.332542 4.51361,7.911792 0.16866,1.04207 0.0304,1.51781 -1.11028,3.8207 -1.55041,3.13001 -4.32666,7.28019 -7.34458,10.97933 -12.96444,15.89084 -30.88374,33.85842 -46.93135,47.05781 -6.77539,5.57285 -14.79455,11.40543 -17.40062,12.65598 -3.204807,1.53788 -4.176136,1.6308 -6.354596,0.60797 z m 8.602676,-22.37414 c 0.26404,-0.2598 -1.11399,-32.48026 -1.42303,-33.27272 -0.14203,-0.36421 -1.03526,-0.42968 -5.862217,-0.42968 l -5.694659,0 -0.17604,2.61789 c -0.09682,1.43983 -0.376642,7.58478 -0.621821,13.65544 -0.245179,6.07066 -0.545858,12.37481 -0.668172,14.00922 -0.122316,1.63441 -0.12531,3.08095 -0.0066,3.21454 0.584365,0.65788 13.801854,0.84565 14.452594,0.20531 z m 1.73384,-36.10265 c 11.82254,-1.12851 22.70006,-3.96578 28.25414,-7.36975 3.71118,-2.27449 6.15473,-5.5868 6.15473,-8.34292 0,-2.98394 -2.72023,-6.317954 -7.3124,-8.962356 l -2.53969,-1.462477 1.93921,-0.589378 c 1.06656,-0.324165 2.14128,-0.589387 2.38827,-0.589387 1.05072,0 -0.0598,-0.323929 -3.40762,-0.993975 -2.84939,-0.570284 -13.46263,-3.121237 -16.57886,-3.984825 -0.63436,-0.175797 -0.63315,-0.163659 0.20379,2.047211 0.46307,1.223229 1.20144,3.286527 1.64084,4.585111 0.90775,2.682788 0.42854,2.506885 4.40197,1.615776 2.68531,-0.602226 3.24532,-0.549963 5.60564,0.523134 4.22211,1.919536 6.23164,3.904186 6.63534,6.553136 0.71022,4.66041 -5.00392,8.32405 -17.13041,10.98322 -11.55643,2.53417 -24.956651,2.4346 -36.814535,-0.27356 -8.905366,-2.03384 -12.92818,-4.3821 -14.099972,-8.23065 -0.326844,-1.07347 -0.293817,-1.26218 0.459152,-2.62351 1.18869,-2.1491 4.002217,-4.60082 6.813597,-5.937417 2.09758,-0.997239 8.813071,-3.131593 9.853194,-3.131593 1.07109,0 0.469187,-0.665461 -1.946641,-2.152212 -1.463662,-0.900765 -3.788718,-2.376969 -5.16679,-3.28045 -1.378071,-0.903481 -2.810511,-1.642695 -3.1832,-1.642695 -2.011773,0 -7.914547,2.135893 -12.287061,4.44602 -6.8959,3.643312 -10.250808,7.235127 -10.800325,11.562997 -0.372319,2.93229 1.608654,5.77885 6.00489,8.62875 3.022407,1.95929 8.016529,3.97546 13.855262,5.59349 5.649719,1.56563 10.980536,2.47419 19.126301,3.25979 2.86134,0.27596 14.140538,0.13035 17.931178,-0.23148 z m -3.71058,-6.68679 c 0.0959,-0.0947 -0.13031,-7.35397 -0.50261,-16.131821 -0.3723,-8.777856 -0.61925,-16.182612 -0.54879,-16.455014 0.1151,-0.444949 0.58082,-0.495275 4.58335,-0.495275 3.44457,0 4.42456,-0.08025 4.32,-0.353768 -3.27499,-8.567066 -6.75457,-17.886362 -9.38302,-25.130367 -1.838149,-5.065942 -3.468282,-9.246046 -3.62252,-9.289121 -0.154239,-0.04307 -0.943355,1.936728 -1.753594,4.399559 -0.810239,2.462829 -3.499061,10.179632 -5.975163,17.14845 -2.4761,6.968819 -4.502,12.795379 -4.502,12.947913 0,0.167346 1.533126,0.277334 3.865807,0.277334 2.126195,0 3.924916,0.09552 3.997156,0.212261 0.07224,0.116743 -0.20131,7.514159 -0.607892,16.438702 -0.636963,13.981537 -0.68263,16.263487 -0.330079,16.494197 0.438182,0.28674 10.164445,0.22812 10.459355,-0.063 z m 29.35076,88.51469 c -2.92641,-1.34097 -4.33523,-3.87818 -4.10591,-7.3945 0.17086,-2.61977 1.16469,-4.40217 3.11671,-5.58972 2.85691,-1.73805 6.33752,-1.67858 9.10188,0.15549 2.03976,1.35332 2.82047,3.05493 2.81242,6.12989 -0.007,2.66121 -0.5135,4.00305 -2.05255,5.43726 -2.13489,1.98946 -6.06467,2.54824 -8.87255,1.26158 z m 5.61056,-1.37444 c 2.08063,-0.74927 3.67992,-3.67294 3.34082,-6.10737 -0.2396,-1.72006 -1.36641,-3.5414 -2.69115,-4.34984 -0.81848,-0.49949 -1.50029,-0.65976 -2.80677,-0.65976 -2.13514,0 -3.56994,0.78566 -4.60321,2.52061 -2.94007,4.93665 1.44364,10.51095 6.76031,8.59636 z m -5.17704,-5.31849 0,-3.9622 2.58852,0 c 2.20504,0 2.67374,0.0839 3.16375,0.56603 1.08492,1.06759 0.55995,3.67919 -0.73958,3.67919 -0.57495,0 -0.51852,0.22968 0.45196,1.83959 0.46917,0.77829 0.85524,1.51059 0.85794,1.62733 0.003,0.11675 -0.41573,0.21029 -0.92984,0.20788 -0.84136,-0.004 -1.02326,-0.16653 -1.82075,-1.62734 -0.48729,-0.89261 -1.10206,-1.66412 -1.36616,-1.71444 -0.40598,-0.0774 -0.48016,0.17405 -0.48016,1.62733 l 0,1.71883 -0.86284,0 -0.86284,0 0,-3.9622 z m 4.51281,-1.31203 c 0.30829,-0.79056 -0.32385,-1.37097 -1.59406,-1.46363 -1.19202,-0.087 -1.19307,-0.0861 -1.19307,0.91979 0,1.00564 9.6e-4,1.00683 1.30328,1.00683 0.94128,0 1.35344,-0.1286 1.48385,-0.46299 z m 100.17852,-87.83753 0,-81.508162 23.00908,0 23.00908,0 0,81.508162 0,81.50817 -23.00908,0 -23.00908,0 0,-81.50817 z m 70.1777,0 0,-81.508162 62.98737,0 62.98736,0 0,15.707304 0,15.707303 -40.12436,0 -40.12433,0 0.0741,16.910115 0.0742,16.910115 36.88644,0.07183 36.88643,0.07182 0,15.706237 0,15.70622 -36.95834,0 -36.95834,0 0,17.26389 0,17.26388 40.12209,0 40.12209,0 0,15.84881 0,15.84881 -62.98736,0 -62.98737,0 0,-81.50817 z m 151.85995,0 0,-81.508162 63.13117,0 63.13118,0 0,15.706319 0,15.706315 -40.194,0.07174 -40.19399,0.07173 0,16.839362 0,16.839361 36.88644,0.07183 36.88643,0.07182 0,15.705157 0,15.70516 -36.88643,0.0718 -36.88644,0.0718 -0.0741,17.19312 -0.0741,17.19313 40.26814,0 40.26811,0 0,15.84881 0,15.84881 -63.13117,0 -63.13117,0 0,-81.50816 z m 152.14756,0 0,-81.508162 62.98738,0 62.98737,0 0,15.707304 0,15.707303 -40.12209,0 -40.1221,0 0,16.980869 0,16.980868 36.95835,0 36.95834,0 0,15.707298 0,15.7073 -36.95834,0 -36.95835,0 0,17.26389 0,17.26388 40.1221,0 40.12209,0 0,15.84881 0,15.84881 -62.98737,0 -62.98738,0 0,-81.50817 z"
       id="path3438"
       inkscape:connector-curvature="0" />
    <path
       style="fill:#0072ad"
       d="m 94.616434,212.48347 c -1.482176,-0.45489 -2.740603,-1.55168 -3.543577,-3.08842 C 89.63944,206.65174 84.585219,199.82548 76.4906,189.70017 69.654909,181.14961 70.46346,182.1059 64.849652,175.93225 42.561009,151.42084 20.425367,131.872 -5.7214062,113.60819 c -2.7265984,-1.90456 -5.2802248,-3.87925 -5.6747258,-4.3882 -2.375665,-3.06485 -1.844843,-6.73878 1.340904,-9.280667 0.6809515,-0.543331 4.3443207,-3.172639 8.1408194,-5.842909 C 20.085796,78.622525 40.690442,60.462191 59.962948,39.559514 69.920615,28.759577 74.373255,23.478549 85.232496,9.5887228 c 7.118547,-9.10518361 7.897364,-10.00274873 9.34744,-10.7726313 2.293062,-1.2174469 4.138526,-1.1753759 6.591074,0.1502563 1.77575,0.95981439 2.00534,1.22001629 6.0788,6.8891735 5.64566,7.8572437 16.02133,20.6940437 23.24014,28.7527167 3.35712,3.747703 19.27746,20.003438 24.66859,25.188288 10.89713,10.480165 23.45467,20.994815 36.05955,30.193312 6.54931,4.779405 12.34993,8.74573 13.13594,8.982038 1.80657,0.543133 4.11348,4.429434 4.11806,6.937414 0.006,3.05898 -1.27755,4.56305 -6.46849,7.58224 -4.35441,2.53264 -17.08146,12.04906 -26.74806,20.00039 -26.00849,21.39347 -48.85897,45.33919 -68.76137,72.05716 -4.54677,6.10382 -4.85382,6.45577 -6.08082,6.97023 -1.165248,0.48857 -4.148347,0.47013 -5.796916,-0.0358 z m 6.038476,-26.86956 c 3.39777,-0.70869 6.70037,-2.67542 14.80479,-8.81639 17.99203,-13.63312 39.62719,-34.69088 55.12495,-53.65376 5.05376,-6.18374 9.18464,-13.16857 9.56647,-16.1758 0.42786,-3.36967 -1.03002,-6.53101 -6.22225,-13.492716 -11.66624,-15.64199 -29.7233,-35.238869 -42.00628,-45.588352 -1.37051,-1.154769 -4.15317,-3.55086 -6.18369,-5.324648 C 121.50183,38.860913 111.99119,31.32891 109.28328,29.530138 103.38064,25.609201 97.126498,24.51568 92.764545,26.641876 90.809319,27.594933 80.895212,34.819384 74.952894,39.621299 60.988406,50.905836 38.938214,72.54692 27.932857,85.768949 c -7.130334,8.566508 -10.128774,12.94294 -11.472418,16.744811 -0.645117,1.82537 -0.681155,2.18262 -0.423859,4.20179 0.371329,2.91405 0.913849,4.06005 3.914457,8.26879 10.143544,14.22766 23.719165,28.81732 42.272375,45.42994 15.745711,14.09878 23.771841,20.27213 31.466843,24.20292 2.770883,1.41544 4.06746,1.60099 6.964655,0.99671 z m -5.071088,-5.51975 C 90.632253,177.57282 83.062823,172.14302 75.885056,165.96362 53.965182,147.0926 39.207619,132.19089 28.06155,117.67298 c -6.491524,-8.45529 -7.498117,-10.33172 -6.985308,-13.0215 1.147314,-6.01792 19.927014,-27.754868 39.80132,-46.068854 12.479477,-11.499721 17.38464,-15.630813 26.905289,-22.659432 5.923735,-4.373193 7.32449,-5.195189 9.258208,-5.432927 2.922883,-0.359352 7.344951,1.386202 11.631941,4.591553 4.54897,3.401229 10.36083,8.086301 14.03121,11.310864 2.10151,1.846256 4.94888,4.305134 6.3275,5.464171 3.43071,2.884294 14.46244,13.63585 19.49145,18.996427 8.10344,8.63769 15.23976,17.161814 22.15261,26.46061 3.21879,4.329758 4.58246,6.854308 4.5733,8.466538 -0.0116,2.03932 -3.25175,7.66292 -7.57875,13.15364 -9.63476,12.22598 -26.56657,29.7117 -41.45289,42.80903 -8.83361,7.772 -20.97491,16.91583 -24.48766,18.44208 -2.816881,1.2239 -3.586018,1.21251 -6.145948,-0.091 z m 9.144308,-22.05881 c 0.27444,-0.27006 -1.08406,-32.43637 -1.40462,-33.25838 -0.14072,-0.36086 -1.08015,-0.44355 -5.821852,-0.51247 -3.109726,-0.0452 -5.68444,-0.0735 -5.721582,-0.0629 -0.0702,0.02 -0.398777,6.80199 -0.952044,19.65021 -0.177631,4.12494 -0.424227,8.96449 -0.547996,10.75455 -0.123769,1.79007 -0.190984,3.29459 -0.149367,3.34337 0.468212,0.54885 14.045771,0.62847 14.597461,0.0856 z m 4.66391,-36.36085 c 11.34367,-1.50661 19.64608,-3.77466 24.8921,-6.80002 2.82164,-1.62722 5.49671,-4.40434 6.1733,-6.40879 0.58293,-1.72694 0.47712,-3.58726 -0.29725,-5.22645 -0.81591,-1.72713 -3.99651,-4.632632 -6.70647,-6.12642 l -2.38596,-1.315187 1.38571,-0.433729 c 0.76214,-0.238553 1.8156,-0.518492 2.34103,-0.622095 0.52542,-0.103602 0.9089,-0.234034 0.85218,-0.289844 -0.0568,-0.05585 -1.97502,-0.4917 -4.26287,-0.968636 -2.28786,-0.476936 -6.92569,-1.571183 -10.3063,-2.431663 -3.38061,-0.86048 -6.19542,-1.516446 -6.25512,-1.457697 -0.0597,0.05874 0.19914,0.860553 0.57521,1.781785 0.37607,0.921235 1.11618,2.98325 1.64469,4.582253 0.7547,2.283342 1.05536,2.871192 1.40095,2.739118 1.37003,-0.523548 5.45025,-1.291489 6.21399,-1.169529 1.26287,0.201658 4.9719,1.980498 6.32048,3.031284 2.32202,1.80926 3.34814,4.20146 2.74457,6.39844 -1.03993,3.78536 -7.56468,7.07727 -18.14655,9.15542 -6.51186,1.27885 -9.36536,1.54105 -16.681591,1.5328 -16.155483,-0.0182 -29.886064,-3.76711 -32.480347,-8.8682 -0.955616,-1.87902 -0.975295,-2.50295 -0.124025,-3.93231 2.408531,-4.04413 6.280977,-6.38392 13.909492,-8.404332 1.660968,-0.439899 3.135194,-0.897439 3.276062,-1.016758 0.140864,-0.119309 -0.741574,-0.829449 -1.960975,-1.578088 -1.219401,-0.74863 -3.58466,-2.23652 -5.256132,-3.306414 -2.919079,-1.868479 -3.093105,-1.938961 -4.408799,-1.785629 -3.093011,0.360464 -10.95839,3.693469 -15.234467,6.455701 -2.391593,1.54491 -5.192083,4.325319 -5.989819,5.94687 -1.599129,3.25053 -1.45007,5.8106 0.485005,8.32996 4.520828,5.88586 18.661394,10.87992 35.560429,12.55899 3.815467,0.3791 18.932647,0.13237 22.721477,-0.37083 z m -6.62957,-6.43951 c 0.0969,-0.0956 -0.12857,-7.35496 -0.50097,-16.131824 -0.37239,-8.776869 -0.62017,-16.180819 -0.55061,-16.453221 0.11359,-0.444833 0.57709,-0.495275 4.55094,-0.495275 2.43345,0 4.42447,-0.05469 4.42447,-0.121529 0,-0.06684 -1.41164,-3.855699 -3.13697,-8.419681 -1.72532,-4.563985 -4.58842,-12.309882 -6.36242,-17.213107 -1.774005,-4.903226 -3.330472,-9.105991 -3.458811,-9.339478 -0.207415,-0.377352 -0.248757,-0.377352 -0.372071,0 -1.680848,5.143613 -4.779706,14.124313 -8.056645,23.348694 l -4.122146,11.603594 3.95948,0.141507 c 2.177715,0.07783 4.020539,0.205185 4.09516,0.283014 0.07463,0.07783 -0.198002,7.442367 -0.605832,16.365638 -0.642155,14.050188 -0.68618,16.260318 -0.328556,16.494198 0.443423,0.28998 10.166771,0.23189 10.464981,-0.0626 z m 29.99758,88.79512 c -2.76929,-1.01604 -4.50452,-3.30837 -4.74611,-6.26983 -0.20395,-2.50013 0.30838,-4.10518 1.84831,-5.79056 1.53089,-1.67549 3.27874,-2.41002 5.70262,-2.39652 2.22968,0.0124 3.68394,0.51771 5.09165,1.76916 1.50984,1.34222 2.28949,2.9292 2.45659,5.00032 0.25216,3.1256 -1.00573,5.6478 -3.54783,7.11375 -1.63305,0.94172 -5.02317,1.22751 -6.80523,0.57368 z m 5.2688,-1.7456 c 1.17757,-0.59921 2.51165,-2.26632 2.8744,-3.59196 0.98337,-3.59355 -1.32732,-7.17489 -4.84377,-7.50738 -5.07044,-0.47941 -8.06825,5.83674 -4.60987,9.71262 1.7973,2.01429 4.30656,2.54317 6.57924,1.38672 z m -5.48392,-5.22597 0,-3.9622 2.31981,0 c 3.21099,0 3.99531,0.44885 4.00328,2.29101 0.005,1.00611 -0.6673,1.95421 -1.3844,1.95421 -0.52695,0 -0.4053,0.4481 0.52596,1.9374 0.47457,0.75893 0.86284,1.46937 0.86284,1.57876 0,0.10939 -0.41689,0.15899 -0.92643,0.1102 -0.78908,-0.0756 -1.05696,-0.31914 -1.80673,-1.64311 -0.48415,-0.85494 -1.10266,-1.59658 -1.37447,-1.64809 -0.42337,-0.0802 -0.49418,0.15265 -0.49418,1.62519 l 0,1.71883 -0.86284,0 -0.86284,0 0,-3.9622 z m 4.55508,-1.66608 c 0.12033,-0.83748 -0.3577,-1.15413 -1.75085,-1.15972 -1.04488,-0.004 -1.07855,0.0271 -1.07855,1.00172 l 0,1.00606 1.36616,-0.0862 c 1.19092,-0.0752 1.37861,-0.17291 1.46324,-0.76179 z m 100.13625,-87.48348 0,-81.508162 23.00908,0 23.00908,0 0,81.508162 0,81.50817 -23.00908,0 -23.00908,0 0,-81.50817 z m 70.1777,0 0,-81.508162 62.98737,0 62.98736,0 0,15.707304 0,15.707303 -40.12209,0 -40.12209,0 0,16.980869 0,16.980868 36.95834,0 36.95834,0 0,15.707298 0,15.7073 -36.95834,0 -36.95834,0 0,17.26389 0,17.26388 40.12209,0 40.12209,0 0,15.84881 0,15.84881 -62.98736,0 -62.98737,0 0,-81.50817 z m 151.85995,0 0,-81.508162 63.13117,0 63.13118,0 0,15.707304 0,15.707303 -40.26817,0 -40.26814,0 0.0741,16.910115 0.0742,16.910115 36.88644,0.07183 36.88643,0.07182 0,15.706237 0,15.70622 -36.95834,0 -36.95834,0 0,17.26389 0,17.26388 40.2659,0 40.2659,0 0,15.84881 0,15.84881 -63.13118,0 -63.13117,0 0,-81.50817 z m 152.14756,0 0,-81.508162 62.98738,0 62.98737,0 0,15.707304 0,15.707303 -40.12209,0 -40.1221,0 0,16.980869 0,16.980868 36.95835,0 36.95834,0 0,15.707298 0,15.7073 -36.95834,0 -36.95835,0 0,17.26389 0,17.26388 40.1221,0 40.12209,0 0,15.84881 0,15.84881 -62.98737,0 -62.98738,0 0,-81.50817 z"
       id="path3436"
       inkscape:connector-curvature="0" />
  </g>
</svg>
